[2026-03-14 19:18:27] [INFO] Jarvis Desktop launcher started.
[2026-03-14 19:18:27] [INFO] Runtime log path: C:\Jarvis\logs\runtime_2026-03-14_19-18-27.txt
[2026-03-14 19:18:27] [INFO] Launcher executable: C:\Users\anden\AppData\Local\Python\pythoncore-3.14-64\pythonw.exe
[2026-03-14 19:18:27] [INFO] Root directory: C:\Jarvis
[2026-03-14 19:18:27] [INFO] Target script: C:\Jarvis\jarvis_desktop_test.py
[2026-03-14 19:18:27] [INFO] Diagnostics script: C:\Jarvis\desktop\jarvis_diagnostics.pyw
[2026-03-14 19:18:27] [INFO] Recovery attempts allowed: 3
[2026-03-14 19:18:27] [INFO] Voice hook ready: C:\Jarvis\jarvis_voice.py
[2026-03-14 19:18:27] [INFO] Starting desktop renderer process. attempt=1
[2026-03-14 19:18:27] [INFO] Child executable: C:\Users\anden\AppData\Local\Python\pythoncore-3.14-64\pythonw.exe
[2026-03-14 19:18:27] [STDOUT] Jarvis Desktop Concept 1 - Version 1.02
[2026-03-14 19:18:27] [STDOUT] Hotkey: Ctrl + Alt + End
[2026-03-14 19:18:27] [STDERR] Traceback (most recent call last):
[2026-03-14 19:18:27] [STDERR]   File "C:\Jarvis\jarvis_desktop_test.py", line 44, in <module>
[2026-03-14 19:18:27] [STDERR]     raise SystemExit(main())
[2026-03-14 19:18:27] [STDERR]                      ~~~~^^
[2026-03-14 19:18:27] [STDERR]   File "C:\Jarvis\jarvis_desktop_test.py", line 36, in main
[2026-03-14 19:18:27] [STDERR]     raise RuntimeError("Jarvis test crash triggered intentionally")
[2026-03-14 19:18:27] [STDERR] RuntimeError: Jarvis test crash triggered intentionally
[2026-03-14 19:18:27] [INFO] Desktop renderer exited. exit_code=1
[2026-03-14 19:18:27] [WARN] Recovery attempt 1/3
[2026-03-14 19:18:28] [INFO] Starting desktop renderer process. attempt=2
[2026-03-14 19:18:28] [INFO] Child executable: C:\Users\anden\AppData\Local\Python\pythoncore-3.14-64\pythonw.exe
[2026-03-14 19:18:29] [STDOUT] Jarvis Desktop Concept 1 - Version 1.02
[2026-03-14 19:18:29] [STDOUT] Hotkey: Ctrl + Alt + End
[2026-03-14 19:18:29] [STDERR] Traceback (most recent call last):
[2026-03-14 19:18:29] [STDERR]   File "C:\Jarvis\jarvis_desktop_test.py", line 44, in <module>
[2026-03-14 19:18:29] [STDERR]     raise SystemExit(main())
[2026-03-14 19:18:29] [STDERR]                      ~~~~^^
[2026-03-14 19:18:29] [STDERR]   File "C:\Jarvis\jarvis_desktop_test.py", line 36, in main
[2026-03-14 19:18:29] [STDERR]     raise RuntimeError("Jarvis test crash triggered intentionally")
[2026-03-14 19:18:29] [STDERR] RuntimeError: Jarvis test crash triggered intentionally
[2026-03-14 19:18:29] [INFO] Desktop renderer exited. exit_code=1
[2026-03-14 19:18:29] [WARN] Recovery attempt 2/3
[2026-03-14 19:18:30] [INFO] Starting desktop renderer process. attempt=3
[2026-03-14 19:18:30] [INFO] Child executable: C:\Users\anden\AppData\Local\Python\pythoncore-3.14-64\pythonw.exe
[2026-03-14 19:18:30] [STDOUT] Jarvis Desktop Concept 1 - Version 1.02
[2026-03-14 19:18:30] [STDOUT] Hotkey: Ctrl + Alt + End
[2026-03-14 19:18:30] [STDERR] Traceback (most recent call last):
[2026-03-14 19:18:30] [STDERR]   File "C:\Jarvis\jarvis_desktop_test.py", line 44, in <module>
[2026-03-14 19:18:30] [STDERR]     raise SystemExit(main())
[2026-03-14 19:18:30] [STDERR]                      ~~~~^^
[2026-03-14 19:18:30] [STDERR]   File "C:\Jarvis\jarvis_desktop_test.py", line 36, in main
[2026-03-14 19:18:30] [STDERR]     raise RuntimeError("Jarvis test crash triggered intentionally")
[2026-03-14 19:18:30] [STDERR] RuntimeError: Jarvis test crash triggered intentionally
[2026-03-14 19:18:30] [INFO] Desktop renderer exited. exit_code=1
[2026-03-14 19:18:30] [ERROR] Crash log written: C:\Jarvis\logs\crash\crash_2026-03-14_19-18-30.txt
[2026-03-14 19:18:30] [INFO] Trying voice line 'Um..... Sir, I seem to be malfunctioning.' using voice --text --mode
[2026-03-14 19:18:36] [VOICE_STDERR] [mp3 @ 000002B09CD02600] Estimating duration from bitrate, this may be inaccurate
[2026-03-14 19:18:36] [VOICE_STDERR] Input #0, mp3, from 'C:/Users/anden/AppData/Local/Temp/tmpi2qeuqpr.mp3':
[2026-03-14 19:18:36] [VOICE_STDERR]   Duration: 00:00:04.94, start: 0.000000, bitrate: 48 kb/s
[2026-03-14 19:18:36] [VOICE_STDERR]   Stream #0:0: Audio: mp3 (mp3float), 24000 Hz, mono, fltp, 48 kb/s
[2026-03-14 19:18:36] [INFO] Voice line completed: Um..... Sir, I seem to be malfunctioning.
[2026-03-14 19:18:36] [INFO] Failure voice step 1/3 success=True line=Um..... Sir, I seem to be malfunctioning.
[2026-03-14 19:18:37] [INFO] Trying voice line 'Attempting restart.' using voice --text --mode
[2026-03-14 19:18:40] [VOICE_STDERR] [mp3 @ 0000011DAB77CA00] Estimating duration from bitrate, this may be inaccurate
[2026-03-14 19:18:40] [VOICE_STDERR] Input #0, mp3, from 'C:/Users/anden/AppData/Local/Temp/tmpq8k2b3jr.mp3':
[2026-03-14 19:18:40] [VOICE_STDERR]   Duration: 00:00:02.23, start: 0.000000, bitrate: 48 kb/s
[2026-03-14 19:18:40] [VOICE_STDERR]   Stream #0:0: Audio: mp3 (mp3float), 24000 Hz, mono, fltp, 48 kb/s
[2026-03-14 19:18:40] [INFO] Voice line completed: Attempting restart.
[2026-03-14 19:18:40] [INFO] Failure voice step 2/3 success=True line=Attempting restart.
[2026-03-14 19:18:41] [INFO] Trying voice line 'Restart failed.' using voice --text --mode
[2026-03-14 19:18:45] [VOICE_STDERR] [mp3 @ 0000029D1F374F40] Estimating duration from bitrate, this may be inaccurate
[2026-03-14 19:18:45] [VOICE_STDERR] Input #0, mp3, from 'C:/Users/anden/AppData/Local/Temp/tmpgnlzmwpf.mp3':
[2026-03-14 19:18:45] [VOICE_STDERR]   Duration: 00:00:02.18, start: 0.000000, bitrate: 48 kb/s
[2026-03-14 19:18:45] [VOICE_STDERR]   Stream #0:0: Audio: mp3 (mp3float), 24000 Hz, mono, fltp, 48 kb/s
[2026-03-14 19:18:45] [INFO] Voice line completed: Restart failed.
[2026-03-14 19:18:45] [INFO] Failure voice step 3/3 success=True line=Restart failed.
[2026-03-14 19:18:46] [INFO] Diagnostics process launched.
